<?xml version="1.0" standalone="no"?>
<!DOCTYPE svg PUBLIC "-//W3C//DTD SVG 20010904//EN"
 "http://www.w3.org/TR/2001/REC-SVG-20010904/DTD/svg10.dtd">
<svg version="1.0" xmlns="http://www.w3.org/2000/svg"
 width="728.000000pt" height="728.000000pt" viewBox="0 0 728.000000 728.000000"
 preserveAspectRatio="xMidYMid meet">
<metadata>
Created by potrace 1.14, written by Peter Selinger 2001-2017
</metadata>
<g transform="translate(0.000000,728.000000) scale(0.100000,-0.100000)"
fill="#000000" stroke="none">
<path d="M3442 6952 l-93 -87 -1 -65 -1 -65 -6 55 c-3 30 -10 54 -16 53 -5 -1
-38 -24 -73 -50 l-64 -48 6 -375 6 -375 -357 -190 -358 -191 -115 -230 -115
-231 -283 -138 c-175 -86 -291 -148 -303 -164 -11 -13 -189 -123 -397 -242
l-377 -218 -423 -362 c-232 -200 -422 -368 -422 -374 0 -16 45 -39 62 -32 17
6 3298 1936 3314 1948 8 7 13 -29 16 -128 3 -76 4 -141 2 -144 -2 -3 -183
-102 -403 -220 l-400 -214 -1 -142 0 -143 -140 0 -140 0 0 -114 0 -113 135 -5
c75 -3 139 -9 143 -13 4 -3 11 -212 16 -463 l9 -457 103 -110 104 -110 0 -642
c0 -577 2 -643 16 -658 9 -9 21 -14 28 -12 15 5 23 273 25 850 l1 467 -104
123 -104 122 -4 453 -4 452 31 0 30 0 3 -102 c1 -57 5 -238 8 -403 l7 -301
123 -139 123 -140 1 -555 2 -555 164 -150 165 -150 -7 -706 c-6 -702 -5 -749
26 -749 5 0 16 7 24 16 14 14 16 94 16 738 l0 723 -102 94 c-128 117 -197 180
-214 197 -11 11 -14 101 -15 485 -1 260 -4 511 -8 559 l-6 86 -51 59 c-29 32
-82 92 -118 133 l-66 75 0 250 c0 137 -3 313 -7 391 l-6 141 167 -5 166 -5 0
54 c0 30 -3 84 -7 122 l-6 67 -160 0 -159 0 7 38 c3 20 10 40 13 43 4 4 140
77 303 164 l295 157 -4 112 -4 111 31 18 32 19 -7 185 -7 186 27 22 27 21 -7
692 c-4 381 -10 692 -13 692 -3 -1 -48 -40 -99 -88z m-53 -1926 c-2 -2 -137
-72 -299 -156 -162 -84 -298 -155 -302 -159 -4 -3 -9 -32 -10 -64 -3 -51 -5
-57 -25 -57 -19 0 -22 7 -28 63 -4 34 -5 83 -3 109 l3 48 325 183 325 183 9
-74 c5 -40 7 -74 5 -76z"/>
<path d="M3750 6342 l0 -699 24 -13 c25 -13 25 -14 20 -134 -2 -66 -6 -150 -8
-186 -4 -64 -4 -66 27 -86 l32 -21 0 -112 0 -113 303 -161 302 -162 0 -37 0
-38 -160 0 -160 0 0 -52 c0 -29 -3 -84 -7 -122 l-6 -69 166 5 167 4 0 -136 c0
-75 -3 -253 -7 -395 l-6 -258 -119 -133 -118 -133 0 -238 c0 -131 -3 -383 -7
-559 l-6 -321 -81 -73 c-45 -41 -118 -107 -163 -149 l-83 -75 0 -717 c0 -687
1 -718 19 -740 16 -20 21 -21 35 -10 14 12 16 83 16 731 l0 718 160 149 160
148 0 551 0 552 47 53 c26 30 82 93 125 141 l79 87 9 358 c5 197 10 379 10
406 0 46 1 47 31 47 l32 0 -7 -371 c-3 -204 -6 -407 -6 -452 l0 -82 -100 -120
-100 -119 0 -652 c0 -567 2 -653 15 -664 12 -10 18 -10 30 0 13 11 15 96 15
655 l0 642 104 115 105 115 11 458 c6 253 13 461 15 463 2 3 65 7 140 10 l135
5 0 113 0 114 -141 0 -140 0 3 140 3 141 -402 217 -403 217 1 100 c0 55 3 117
7 138 l7 38 1658 -976 c912 -536 1663 -975 1670 -975 7 0 23 9 36 19 l25 19
-34 29 c-19 15 -211 180 -427 365 l-392 338 -318 183 c-175 101 -344 198 -375
216 -31 17 -68 44 -81 60 -15 19 -117 74 -303 164 l-279 135 -119 234 -119
233 -357 190 -358 190 4 85 c2 47 6 214 8 371 l5 285 -70 58 c-39 32 -73 56
-75 54 -2 -3 -8 -29 -13 -59 l-10 -54 4 61 4 60 -92 92 c-51 51 -98 92 -105
92 -9 0 -12 -152 -12 -698z m550 -1376 l275 -154 3 -111 3 -111 -26 0 c-24 0
-25 3 -25 58 l0 57 -295 154 c-162 85 -301 159 -308 165 -9 8 -12 33 -9 83 l4
72 51 -29 c29 -16 176 -99 327 -184z"/>
<path d="M3023 6573 l-128 -117 -1 -74 -2 -74 -63 -49 c-34 -27 -66 -49 -70
-49 -4 0 -10 16 -13 35 -4 19 -10 35 -13 35 -4 0 -35 -18 -69 -41 -56 -36 -63
-44 -58 -67 11 -54 8 -60 -36 -95 -49 -39 -60 -39 -60 1 0 54 -12 56 -78 15
l-62 -38 0 -108 0 -108 -146 -239 -146 -239 -311 -172 -312 -172 -150 -189
c-82 -104 -168 -212 -189 -239 -21 -27 -37 -52 -34 -55 10 -10 522 287 568
330 32 29 121 77 314 171 l269 130 116 235 117 235 349 186 350 186 3 342 c1
206 -1 341 -7 341 -5 0 -67 -53 -138 -117z"/>
<path d="M4132 6348 l3 -342 350 -187 350 -186 113 -233 112 -232 284 -138
c193 -95 290 -147 303 -165 19 -27 559 -342 569 -332 3 3 -82 115 -188 249
l-195 243 -299 164 c-164 90 -304 168 -311 175 -6 6 -77 118 -157 249 l-146
238 0 103 0 103 -55 37 c-58 39 -75 39 -76 3 0 -12 -4 -30 -7 -40 -7 -16 -13
-14 -54 18 -46 36 -47 38 -42 83 l6 47 -60 38 c-32 20 -61 37 -65 37 -3 0 -8
-13 -12 -30 -4 -16 -10 -32 -15 -35 -4 -2 -37 17 -72 45 l-65 49 4 68 5 68
-103 95 c-57 52 -117 107 -134 122 -16 16 -33 28 -38 28 -4 0 -6 -154 -5 -342z"/>
<path d="M2115 4367 c-37 -17 -53 -36 -65 -76 -11 -38 3 -92 30 -116 18 -16
20 -30 19 -139 -1 -67 -4 -150 -8 -185 l-6 -65 -136 132 c-75 73 -141 132
-147 132 -6 0 -11 -49 -13 -121 l-4 -120 175 -173 c96 -95 273 -266 392 -382
l217 -209 -1 -330 c0 -181 -3 -600 -7 -930 l-8 -600 91 -92 c50 -51 96 -93
102 -93 9 0 11 258 7 1088 l-5 1087 -114 108 -114 109 0 262 0 263 25 23 c73
69 20 190 -82 190 -106 0 -157 -113 -87 -191 13 -15 15 -48 14 -211 0 -106 -4
-196 -8 -200 -4 -4 -45 28 -91 70 l-84 77 8 240 c7 237 7 240 32 266 29 32 39
93 21 128 -29 55 -100 81 -153 58z"/>
<path d="M5094 4366 c-44 -20 -64 -52 -64 -107 0 -37 6 -55 27 -79 l27 -32 6
-232 6 -231 -85 -88 -86 -88 -6 93 c-11 150 -10 328 1 328 16 0 40 57 40 97 0
45 -20 77 -60 98 -37 19 -64 19 -106 -1 -65 -31 -85 -118 -40 -171 24 -28 24
-33 31 -293 l7 -265 -120 -110 -120 -110 -1 -1087 c-1 -599 2 -1088 7 -1088 4
0 49 42 100 93 l93 94 -11 924 -11 923 143 141 c79 78 257 252 397 387 l253
246 -7 121 c-5 79 -11 121 -18 121 -7 0 -73 -61 -148 -136 l-136 -136 -5 188
-5 189 24 26 c29 32 39 94 21 129 -17 31 -74 70 -102 70 -12 -1 -35 -7 -52
-14z"/>
<path d="M960 4004 c-25 -7 -83 -35 -130 -61 l-85 -48 -3 -63 c-2 -42 1 -62 9
-62 6 0 57 25 113 56 123 68 182 82 273 65 81 -15 116 -32 224 -112 130 -96
271 -221 415 -366 l132 -133 49 0 c52 0 103 27 103 55 0 21 -244 262 -369 363
-129 106 -314 231 -397 269 -117 53 -240 67 -334 37z"/>
<path d="M6138 4006 c-116 -34 -296 -143 -488 -296 -118 -94 -380 -353 -380
-375 0 -28 50 -55 103 -55 l49 0 97 101 c165 174 462 423 566 476 57 29 150
46 209 38 34 -4 89 -26 163 -66 61 -32 116 -59 122 -59 7 0 11 24 11 59 l0 60
-59 35 c-117 71 -169 90 -261 93 -50 1 -104 -3 -132 -11z"/>
<path d="M3780 3615 l0 -265 165 0 c91 0 165 3 165 6 0 13 -315 524 -322 524
-5 0 -8 -119 -8 -265z"/>
<path d="M970 3855 c-19 -9 -78 -41 -132 -72 -81 -47 -97 -60 -102 -86 -9 -44
-7 -269 2 -265 4 2 50 24 102 50 150 75 258 85 361 33 50 -26 120 -91 638
-590 l290 -280 1 -560 0 -560 144 -144 143 -143 6 54 c13 103 14 100 -84 195
-104 101 -114 115 -99 143 18 34 50 23 119 -42 l66 -63 3 52 3 53 -91 87
c-104 99 -115 115 -100 143 19 35 52 24 115 -40 33 -33 63 -60 67 -60 4 0 8
20 8 44 0 42 -3 46 -100 139 -55 52 -100 100 -100 106 0 25 21 51 41 51 12 0
50 -28 90 -66 45 -45 70 -62 73 -53 2 8 7 230 11 494 l6 480 -128 120 c-70 66
-151 141 -179 168 l-52 48 -47 -26 c-93 -49 -127 -33 -286 130 -130 134 -325
303 -437 379 -118 81 -274 116 -352 81z"/>
<path d="M3527 3833 c-119 -191 -287 -473 -287 -483 0 -7 7 -10 16 -6 9 3 83
6 165 6 l149 0 0 260 c0 164 -4 260 -10 260 -5 0 -20 -17 -33 -37z"/>
<path d="M6176 3854 c-127 -31 -302 -161 -571 -426 -207 -203 -226 -213 -320
-162 l-48 25 -31 -29 c-17 -15 -97 -90 -178 -167 l-148 -138 0 -151 c0 -373
13 -826 24 -826 7 0 38 27 71 60 65 65 99 77 114 38 13 -35 3 -49 -96 -143
-91 -85 -93 -88 -93 -133 l0 -45 64 61 c69 67 106 79 126 42 15 -29 3 -46
-100 -142 l-91 -84 3 -55 3 -54 66 63 c69 65 101 76 119 42 15 -28 4 -44 -99
-143 -99 -94 -99 -94 -85 -201 l7 -48 143 143 144 144 0 558 0 557 203 198
c676 662 712 693 819 707 76 11 168 -12 276 -66 52 -27 97 -49 99 -49 5 0 3
236 -3 266 -5 24 -23 39 -102 86 -161 95 -193 102 -316 72z"/>
<path d="M1003 3510 c-57 -12 -122 -41 -215 -98 -91 -55 -84 -33 -93 -302 l-5
-175 694 -682 c382 -376 699 -683 704 -683 6 0 12 148 16 358 3 196 9 431 12
522 l6 165 -268 255 c-148 140 -350 334 -449 431 -154 150 -188 178 -230 192
-69 22 -122 27 -172 17z"/>
<path d="M6209 3510 c-75 -13 -123 -45 -236 -158 -60 -59 -256 -249 -437 -422
l-328 -314 6 -475 c7 -480 11 -574 26 -569 5 2 320 308 699 681 l691 679 -1
111 c-1 62 -4 159 -8 217 l-6 104 -85 53 c-135 84 -222 109 -321 93z"/>
<path d="M3189 2925 c-56 -30 -63 -125 -12 -165 49 -38 132 -17 152 40 32 93
-55 171 -140 125z"/>
<path d="M3453 2928 c-12 -6 -29 -26 -39 -46 -13 -29 -14 -41 -5 -73 14 -47
44 -69 92 -69 47 0 86 31 95 76 16 86 -65 150 -143 112z"/>
<path d="M3733 2928 c-12 -6 -29 -26 -39 -46 -13 -29 -14 -41 -5 -73 14 -47
44 -69 92 -69 71 0 113 63 89 135 -18 55 -82 80 -137 53z"/>
<path d="M3993 2928 c-12 -6 -29 -26 -39 -46 -13 -29 -14 -42 -5 -72 29 -96
168 -92 187 6 16 86 -65 150 -143 112z"/>
</g>
</svg>
